:SAMPLES-PER-SECOND 30
:FULLY-SPECIFIED
:DEGREES
224
root  -70.3471 39.728 7.6642 176.574 -65.8399 -179.766
RightUpLeg  -9.84168 12.6813 -1.7255
RightLeg  24.4105 8.06542 3.78548
RightFoot  -10.5096 -0.0652548 -0.778245
RightToes  -1.74624e-010 0 -3.6325e-017
Spine  7.36775 2.27021 12.6708
Spine1  4.08613 4.60401 -7.68821
HEad  -20.5799 -19.9681 5.90417
LeftShoulder1  -0.514511 4.80789 -33.3104
LeftArm  -7.00086 27.9027 -41.8562
LeftForeArm  44.1719 -6.87285 -7.31291
LeftHand  -0.331192 9.14865 -8.26885
RightShoulder  -1.08406 -6.59962 28.4752
RightArm  33.0593 20.75 54.0488
RightForeArm  9.11561 30.7882 6.23017
RightHand  -0.117157 6.77732 -1.45628
LeftUpLeg  -16.7893 -25.6084 12.2897
LeftLeg  16.763 -21.6295 -6.86739
LeftFoot  -5.08017 0.44666 -7.53541
LeftToes  -3.96543e-010 8.93632e-011 -2.58531e-011
225
root  -70.8996 39.6721 8.09505 177.182 -58.511 -179.907
RightUpLeg  -11.1047 18.1071 -2.45087
RightLeg  24.7361 9.71833 4.63391
RightFoot  -10.7844 -0.0725563 -0.124171
RightToes  -1.74624e-010 0 -3.6325e-017
Spine  7.7666 2.45598 12.62
Spine1  4.55076 5.37917 -9.84037
HEad  -21.6172 -20.5971 4.82631
LeftShoulder1  -0.490576 4.75992 -32.8901
LeftArm  -6.90367 26.8584 -43.3693
LeftForeArm  41.3028 -7.4066 -7.4512
LeftHand  -0.278874 8.58308 -7.66486
RightShoulder  -1.21494 -6.85326 29.7735
RightArm  42.5927 23.2407 56.9877
RightForeArm  5.64632 27.4763 5.62205
RightHand  -0.129564 6.02268 -1.64485
LeftUpLeg  -15.1369 -22.4392 11.5455
LeftLeg  17.1114 -18.8131 -6.04787
LeftFoot  -7.74948 0.249204 -6.53993
LeftToes  -3.96543e-010 8.93632e-011 -2.58531e-011
226
root  -71.3856 39.6969 8.5602 178.741 -52.1558 179.249
RightUpLeg  -12.8402 22.782 -4.2569
RightLeg  24.4649 11.42 5.41459
RightFoot  -10.6568 -0.0774528 0.909553
RightToes  -1.74624e-010 0 -3.6325e-017
Spine  8.04391 2.13057 11.1781
Spine1  4.4691 5.30884 -11.3087
HEad  -23.1538 -21.5606 4.69313
LeftShoulder1  -0.372896 4.46807 -32.5467
LeftArm  -6.89667 24.7177 -44.2261
LeftForeArm  39.2074 -7.35234 -7.58137
LeftHand  -0.132292 7.74301 -4.32051
RightShoulder  -1.23206 -6.81609 30.6898
RightArm  50.3483 24.0175 59.6227
RightForeArm  3.75125 24.8033 5.12421
RightHand  -0.0787438 5.06311 -1.18099
LeftUpLeg  -14.5544 -19.902 10.2785
LeftLeg  18.1058 -14.6198 -4.94817
LeftFoot  -8.7538 0.195296 -6.3691
LeftToes  -3.96543e-010 8.93632e-011 -2.58531e-011
227
root  -71.8339 39.7626 9.02285 -179.776 -46.9557 178.528
RightUpLeg  -14.5223 26.2172 -6.39843
RightLeg  23.5647 12.9674 5.92057
RightFoot  -10.1472 -0.0874598 1.75327
RightToes  -1.74624e-010 0 -3.6325e-017
Spine  8.5238 1.70518 7.03976
Spine1  3.80357 4.05495 -8.69214
HEad  -24.2126 -22.1815 5.14069
LeftShoulder1  -0.37949 4.4812 -32.6914
LeftArm  -6.7068 21.6282 -44.0996
LeftForeArm  39.6466 -7.63032 -7.62395
LeftHand  -0.129409 7.55046 -4.38452
RightShoulder  -1.06552 -6.41227 30.0692
RightArm  53.3189 22.4179 61.5183
RightForeArm  3.74166 22.7558 4.85075
RightHand  -0.0518037 5.03164 -0.884135
LeftUpLeg  -14.5238 -16.8443 8.83089
LeftLeg  18.7521 -11.7687 -4.11367
LeftFoot  -7.91197 0.187237 -4.67372
LeftToes  -3.96543e-010 8.93632e-011 -2.58531e-011
228
root  -72.2965 39.9387 9.50136 -179.162 -41.7501 178.856
RightUpLeg  -15.2869 28.9922 -7.96553
RightLeg  20.4542 14.8141 5.80522
RightFoot  -8.90132 -0.128616 3.14219
RightToes  -1.74624e-010 0 -3.6325e-017
Spine  8.54064 1.22548 4.37604
Spine1  3.63636 3.03134 -6.98177
HEad  -23.9276 -21.8921 5.75097
LeftShoulder1  -0.368671 4.45473 -32.6091
LeftArm  -4.81072 17.7412 -42.336
LeftForeArm  38.7211 -7.60676 -8.26598
LeftHand  -0.102773 7.31846 -3.50723
RightShoulder  -0.881728 -5.95208 29.4331
RightArm  50.8291 19.5318 61.1687
RightForeArm  4.35147 21.5734 5.21304
RightHand  -0.0785054 4.76797 -1.19135
LeftUpLeg  -13.8337 -12.8602 7.94544
LeftLeg  17.9867 -10.2738 -3.19241
LeftFoot  -7.08289 0.165369 -3.30985
LeftToes  -3.96543e-010 8.93632e-011 -2.58531e-011
229
root  -72.757 40.1238 10.0086 -178.411 -35.9808 178.906
RightUpLeg  -15.7331 27.4205 -8.80567
RightLeg  17.0953 17.6143 4.81485
RightFoot  -7.30559 -0.225635 4.98232
RightToes  -1.74624e-010 0 -3.6325e-017
Spine  8.72445 0.906645 2.23486
Spine1  3.15484 2.42715 -6.32357
HEad  -23.1225 -22.4802 6.14263
LeftShoulder1  -0.327096 4.37042 -31.6664
LeftArm  -5.34078 15.9456 -40.8365
LeftForeArm  37.5035 -10.1516 -7.32439
LeftHand  -0.0823243 7.62968 -1.97081
RightShoulder  -0.946654 -6.08056 30.1614
RightArm  48.7711 17.5258 59.2052
RightForeArm  3.83789 20.1442 5.98147
RightHand  -0.0914233 5.33534 -1.30258
LeftUpLeg  -12.771 -6.00163 6.54338
LeftLeg  16.6456 -11.0882 -2.4444
LeftFoot  -6.41202 0.138863 -2.31745
LeftToes  -3.96543e-010 8.93632e-011 -2.58531e-011
230
root  -73.3032 40.2861 10.5068 -177.619 -29.7513 178.662
RightUpLeg  -15.2803 17.1452 -7.48605
RightLeg  14.0321 19.3885 2.11422
RightFoot  -5.36388 -0.348476 5.99118
RightToes  -1.74624e-010 0 -3.6325e-017
Spine  8.83244 0.785588 1.02467
Spine1  2.36109 2.21172 -6.31715
HEad  -22.1843 -23.9746 6.43882
LeftShoulder1  -0.281213 4.25734 -30.9193
LeftArm  -3.54602 15.1995 -37.8879
LeftForeArm  32.1754 -13.7944 -6.21321
LeftHand  -0.0535538 7.7078 -0.489187
RightShoulder  -0.98865 -6.15826 30.6738
RightArm  47.4389 15.8438 56.1346
RightForeArm  3.39393 19.0081 6.73616
RightHand  -0.0797625 5.02989 -1.18878
LeftUpLeg  -11.7015 -0.162663 5.02506
LeftLeg  15.1664 -10.6538 -1.66565
LeftFoot  -6.09524 0.139491 -2.24483
LeftToes  -3.96543e-010 8.93632e-011 -2.58531e-011
231
root  -73.8324 40.404 10.9573 -175.764 -22.514 178.091
RightUpLeg  -17.1445 7.21354 -7.36143
RightLeg  12.21 14.022 0.583033
RightFoot  -4.00121 -0.446953 6.53236
RightToes  -1.74624e-010 0 -3.6325e-017
Spine  7.35249 1.33282 0.706284
Spine1  2.09745 3.03834 -7.63732
HEad  -22.0053 -24.3802 7.79471
LeftShoulder1  -0.0648128 3.68778 -29.6794
LeftArm  -2.13797 16.3925 -35.4138
LeftForeArm  25.616 -19.0999 -4.51265
LeftHand  -0.00153584 7.62498 1.95193
RightShoulder  -1.03473 -6.27452 30.7949
RightArm  42.221 13.9174 52.6527
RightForeArm  7.5525 17.5646 7.29716
RightHand  -0.0594543 4.09735 -0.997986
LeftUpLeg  -11.6883 4.02365 3.53696
LeftLeg  13.6156 -7.3987 -0.777172
LeftFoot  -5.83723 0.134795 -2.07459
LeftToes  -3.96543e-010 8.93632e-011 -2.58531e-011
